<?xml version="1.0" encoding="UTF-8" standalone="no"?><svg xmlns="http://www.w3.org/2000/svg" height="32" viewBox="0 0 32 32" width="32"><path d="M21.16 21.24C20.8166 21.24 20.481 21.138 20.1957 20.9469 19.9103 20.7559 19.6882 20.4844 19.5574 20.1669 19.4266 19.8494 19.3931 19.5002 19.461 19.1636 19.529 18.827 19.6954 18.5182 19.9392 18.2763 20.1829 18.0344 20.493 17.8704 20.8301 17.805 21.1672 17.7397 21.5161 17.7759 21.8326 17.9091 22.1491 18.0424 22.4189 18.2666 22.6077 18.5534 22.7966 18.8402 22.896 19.1766 22.8934 19.52 22.8934 19.747 22.8484 19.9718 22.7612 20.1813 22.6739 20.3909 22.546 20.5811 22.3849 20.741 22.2237 20.9009 22.0326 21.0273 21.8223 21.1129 21.6121 21.1986 21.387 21.2418 21.16 21.24V21.24ZM15.9867 21.24C15.6427 21.2426 15.3058 21.1429 15.0187 20.9534 14.7316 20.764 14.5074 20.4934 14.3746 20.1762 14.2417 19.8589 14.2063 19.5093 14.2727 19.1718 14.3392 18.8343 14.5045 18.5243 14.7478 18.2811 14.991 18.0379 15.301 17.8725 15.6385 17.806 15.976 17.7396 16.3256 17.775 16.6429 17.9079 16.9601 18.0407 17.2307 18.265 17.4201 18.552 17.6096 18.8391 17.7093 19.1761 17.7067 19.52 17.7033 19.9728 17.5228 20.4063 17.2038 20.7277 16.8849 21.0492 16.4528 21.233 16 21.24H15.9867ZM10.8 21.24C10.4561 21.2426 10.1191 21.1429 9.83205 20.9534 9.54497 20.764 9.32074 20.4934 9.1879 20.1762 9.05506 19.8589 9.01961 19.5093 9.08607 19.1718 9.15252 18.8343 9.31788 18.5243 9.56109 18.2811 9.8043 18.0379 10.1144 17.8725 10.4518 17.806 10.7893 17.7396 11.1389 17.775 11.4562 17.9079 11.7735 18.0407 12.044 18.265 12.2335 18.552 12.4229 18.8391 12.5227 19.1761 12.52 19.52 12.5165 19.9751 12.3342 20.4106 12.0124 20.7324 11.6906 21.0542 11.2551 21.2365 10.8 21.24V21.24ZM27.8667 15.2933C26.7674 15.2948 25.7071 14.8859 24.8934 14.1467 24.0776 14.8826 23.0186 15.291 21.92 15.2933 20.8207 15.2948 19.7604 14.8859 18.9467 14.1467 18.1324 14.8935 17.0649 15.3034 15.96 15.2933 14.88 15.2946 13.8367 14.9011 13.0267 14.1867 12.2126 14.903 11.1644 15.2967 10.08 15.2933 8.97948 15.3013 7.91689 14.8915 7.10669 14.1467 6.51549 14.6813 5.79162 15.0475 5.01063 15.207 4.22965 15.3665 3.42017 15.3134 2.66669 15.0533V23.7867C2.66668 24.0434 2.71747 24.2977 2.81613 24.5347 2.9148 24.7718 3.05938 24.987 3.24156 25.1679 3.42374 25.3488 3.63991 25.492 3.87763 25.589 4.11536 25.686 4.36993 25.7351 4.62669 25.7333H11.6667L16 30.1067 20.3734 25.7333H27.4134C27.9296 25.7333 28.4248 25.5282 28.7899 25.1632 29.1549 24.7981 29.36 24.303 29.36 23.7867V15.0267C28.8808 15.199 28.3759 15.2892 27.8667 15.2933V15.2933ZM29.4 4.08002V3.84002C29.4 3.32374 29.1949 2.82859 28.8299 2.46352 28.4648 2.09845 27.9696 1.89336 27.4534 1.89336H4.62669C4.36993 1.8916 4.11536 1.94065 3.87763 2.03769 3.63991 2.13473 3.42374 2.27785 3.24156 2.45879 3.05938 2.63973 2.9148 2.85492 2.81613 3.09197 2.71747 3.32903 2.66668 3.58326 2.66669 3.84002V4.08002H29.4Z" fill="#6256b1" /><path d="M2.56 4.84003.49333 9.90669V10.0267C.442332 10.2363.415491 10.451.41333 10.6667.423406 11.426.664773 12.1641 1.10523 12.7827 1.54569 13.4012 2.16429 13.8707 2.8785 14.1286 3.59272 14.3865 4.36859 14.4204 5.1026 14.2259 5.83661 14.0314 6.49386 13.6177 6.98666 13.04L7.10666 12.88 7.97333 4.88003 2.56 4.84003ZM13.3333 4.84003 13.04 12.84C13.3896 13.2988 13.8404 13.6707 14.3573 13.9266 14.8742 14.1826 15.4432 14.3158 16.02 14.3158 16.5968 14.3158 17.1658 14.1826 17.6827 13.9266 18.1996 13.6707 18.6504 13.2988 19 12.84L18.7066 4.84003H13.3333ZM31.5333 10.0667V9.90669L29.4667 4.84003H24L24.8667 12.84 24.9867 13C25.4748 13.5854 26.1305 14.0073 26.8654 14.209 27.6004 14.4108 28.3796 14.3828 29.0982 14.1288 29.8168 13.8747 30.4404 13.4068 30.8852 12.7879 31.3301 12.169 31.5749 11.4288 31.5867 10.6667 31.5903 10.4654 31.5724 10.2642 31.5333 10.0667V10.0667Z" fill="#ff5a00" /></svg>