<?xml version="1.0" encoding="UTF-8" standalone="no"?><svg xmlns="http://www.w3.org/2000/svg" xmlns:xlink="http://www.w3.org/1999/xlink" id="Warstwa_2" viewBox="0 0 96 96" x="0px" y="0px">
<style type="text/css">.st0 { fill: rgb(20, 133, 158) }</style><g>
	<g>
		<path class="st0" d="M48.1,0c-2.2,0-4,1.8-4.1,3.9C44,6,45.5,8,48,8c2.5,0,4.1-2,4-4C52,1.8,50.2,0,48.1,0z" />
	</g>
	<path class="st0" d="M65.5,3.3c-2.1-0.8-4.4,0.2-5.2,2.3s0.2,4.4,2.3,5.2C78,16.8,88,31.4,88,48H56h-4H8c0-16.6,10-31.2,25.5-37.3   c2.1-0.8,3.1-3.1,2.3-5.2c-0.8-2.1-3.1-3.1-5.2-2.3C12,10.5,0,28.1,0,48v4c0,2.2,1.8,4,4,4h40v28c0,2.2-1.8,4-4,4h-4   c-2.2,0-4,1.8-4,4s1.8,4,4,4h4c6.6,0,12-5.4,12-12V56h4h36c2.2,0,4-1.8,4-4v-4C96,28.1,84,10.5,65.5,3.3z" />
</g>
</svg>