<?xml version="1.0" encoding="UTF-8" standalone="no"?><svg y="0px" xml:space="preserve" x="0px" viewBox="0 0 32 32" version="1.1" style="enable-background:new 0 0 32 32;" id="Layer_1" xmlns:xlink="http://www.w3.org/1999/xlink" xmlns="http://www.w3.org/2000/svg">
  <style type="text/css">.st0{fill:#D6007E;}</style>
  <path d="M26,17c-0.5,0-1,0.4-1,1c0,0.5,0.4,1,1,1c0.6,0,1-0.5,1-1C27,17.5,26.6,17,26,17z" class="st0"></path>
  <path d="M24,28H8c-1.7,0-3-1.4-3-3v-7c0-0.6,0.4-1,1-1s1,0.4,1,1v7c0,0.5,0.4,1,1,1h16c0.6,0,1-0.5,1-1v-2  c0-0.5,0.5-1,1-1c0.6,0,1,0.5,1,1v2C27,26.7,25.6,28,24,28z" class="st0"></path>
  <path d="M29,15.8c-0.2,0-0.4-0.1-0.6-0.2L25,12.9L25,8c0-0.6-0.5-1-1-1c-0.6,0-1,0.4-1,1v3.6l-6.7-5.5  c-0.2-0.1-0.5-0.1-0.7,0l-12,9.4c-0.4,0.3-1.1,0.3-1.4-0.2c-0.3-0.4-0.3-1.1,0.2-1.4l12-9.4c0.9-0.7,2.2-0.7,3.1,0l3.5,2.9  C21.3,6.1,22.5,5,24,5c1.6,0,3,1.3,3,3v4l2.6,2c0.4,0.3,0.5,1,0.2,1.4C29.6,15.6,29.3,15.8,29,15.8L29,15.8z" class="st0"></path>
  <path d="M18.5,14.5c0.4,0,0.8,0.1,1.1,0.4c1.5,1.3,1.2,4.1-3.4,6.8c-4.7-2.6-4.9-5.5-3.4-6.8c0.4-0.3,0.7-0.4,1.1-0.4  c1,0,2,0.9,2.3,1.2C16.5,15.4,17.5,14.5,18.5,14.5z M18.5,12.5c-0.9,0-1.6,0.3-2.3,0.7c-0.6-0.4-1.4-0.7-2.3-0.7  c-0.9,0-1.7,0.3-2.4,0.9c-1.1,0.9-1.6,2.3-1.5,3.8c0.2,1.6,1.2,4,5.2,6.2l1,0.5l1-0.5c4-2.3,5.1-4.7,5.2-6.2  c0.1-1.4-0.4-2.8-1.5-3.8C20.2,12.8,19.3,12.5,18.5,12.5L18.5,12.5z" class="st0"></path>
</svg>