<?xml version="1.0" encoding="UTF-8" standalone="no"?><svg xmlns="http://www.w3.org/2000/svg" width="32" height="32" viewBox="0 0 32 32" fill="#656565"><path d="M23 19h-2c0-.6-.4-1-1-1s-1 .4-1 1h-2c0-3.9 6-3.9 6 0zm-10 0h2c0-3.9-6-3.9-6 0h2c0-.5.4-1 .9-1h.1c.5 0 1 .4 1 .9v.1zm14.2-4H27v8h.2c1 0 1.8-.8 1.8-1.8v-4.4c0-1-.8-1.8-1.8-1.8zM16 23c-1 0-2-.4-2-1h-2a3 3 0 001.4 2.4c.8.4 1.7.7 2.6.6 2.4 0 4-1.2 4-3h-2c0 .6-1 1-2 1zM3 16.8v4.4c0 1 .8 1.8 1.8 1.8H5v-8h-.2c-1 0-1.8.8-1.8 1.8zM26 10v15a4 4 0 01-4 4H10a4 4 0 01-4-4V10h4V8.8C8.4 8.3 7.6 6.6 8.2 5s2.3-2.4 3.8-1.8 2.4 2.3 1.8 3.8A3 3 0 0112 8.8V10h8V8.8A3 3 0 0118.2 5c.6-1.6 2.3-2.4 3.8-1.8s2.4 2.3 1.8 3.8A3 3 0 0122 8.8V10h4zm-6-4c0 .6.4 1 1 1s1-.4 1-1-.4-1-1-1-1 .4-1 1zM10 6c0 .6.4 1 1 1s1-.4 1-1-.4-1-1-1-1 .4-1 1zm14 6H8v13c0 1.1.9 2 2 2h12a2 2 0 002-2V12z" /></svg>
