<?xml version="1.0" encoding="UTF-8" standalone="no"?><svg viewBox="0 0 107 16" fill="none" height="16" width="107" xmlns="http://www.w3.org/2000/svg">
  <path d="M0 10.0145C0 7.62144 2.57159 7.30905 3.42507 7.30905H5.37746V7.13055C5.37746 6.79027 5.23243 6.26591 4.73038 6.02605C4.02752 5.65788 2.62737 5.77502 1.45593 6.51136C1.3109 6.60061 1.13239 6.56714 1.11566 6.37748L1.04314 5.2172C1.03756 5.15583 1.05987 5.10005 1.11566 5.07216C1.93566 4.58685 2.92302 4.33583 3.86575 4.33583C4.80848 4.33583 5.81815 4.61474 6.34809 5.17257C6.86129 5.71366 7.09557 6.53925 7.09557 7.59912V12.2849C7.09557 12.4188 6.99517 12.4913 6.87244 12.4913H2.92302C2.04165 12.4913 1.34994 12.3295 0.853477 11.9334C0.295649 11.4928 0 10.8457 0 10.0368V10.0145ZM1.80736 10.0257C1.80736 10.3325 1.9524 10.5668 2.22016 10.7899C2.48234 10.9796 2.75009 11.0688 3.04574 11.0688H5.37746V8.74825H3.51432C2.11975 8.74825 1.80736 9.58499 1.80736 10.0257ZM8.34511 1.27335C8.34511 1.15621 8.41763 1.03906 8.55151 1.03906H9.89029C10.0242 1.03906 10.1413 1.15621 10.1413 1.27335V12.2905C10.1413 12.4243 10.0242 12.4969 9.89029 12.4969H8.55151C8.41763 12.4969 8.34511 12.4243 8.34511 12.2905V1.27335ZM11.4745 1.27335C11.4745 1.15621 11.5917 1.03906 11.7088 1.03906H13.0588C13.1759 1.03906 13.2652 1.15621 13.2652 1.27335V12.2905C13.2652 12.4243 13.1759 12.4969 13.0588 12.4969H11.7088C11.5917 12.4969 11.4745 12.4243 11.4745 12.2905V1.27335ZM14.4589 7.2979C14.7992 5.94795 15.8256 4.34698 18.2187 4.34698C21.4931 4.34698 21.9059 7.38715 21.8055 8.85981C21.7888 8.99369 21.7051 9.08294 21.5712 9.08294H16.283C16.3723 10.1261 17.2648 10.8903 18.3247 10.9796C19.3845 11.0521 20.2213 10.7732 20.9409 10.3492C21.1194 10.2153 21.2477 10.3213 21.2477 10.5389V11.5541C21.2477 11.8051 21.2309 11.8944 21.0859 11.9669C20.4556 12.3351 19.6021 12.5526 18.3079 12.4969C17.0417 12.469 15.8423 11.9669 15.106 10.9405C14.5761 10.2042 14.3139 9.32281 14.3139 8.43029C14.3139 8.02865 14.3585 7.64933 14.4589 7.2979ZM19.9089 7.61586C19.9089 6.33843 18.9996 5.89775 18.2187 5.89775C16.7795 5.89775 16.3109 7.03014 16.3109 7.61586H19.9089ZM25.1859 15.7267V14.5385C25.1859 14.3488 25.331 14.3042 25.5262 14.3488C25.8665 14.3767 26.5694 14.4493 27.0714 14.4214C27.8356 14.36 28.9959 14.1146 28.9959 12.7758V11.8051C28.3321 12.2291 27.5288 12.4801 26.6921 12.4801C25.4425 12.4801 24.2265 11.9502 23.4734 10.9238C22.4582 9.51247 22.4582 7.32579 23.4734 5.92564C24.2209 4.8825 25.4425 4.34141 26.6921 4.34141C27.9583 4.34141 29.1744 4.8825 29.9219 5.92564C30.4518 6.6285 30.6861 7.52661 30.6861 8.40797V12.2849C30.6861 12.8148 30.6248 13.4173 30.463 13.9137C30.2399 14.6054 29.8159 15.1744 29.1856 15.5314C28.3209 16.0335 27.1272 16.0725 25.3923 15.9108C25.2585 15.9219 25.1859 15.8327 25.1859 15.7267ZM24.7453 9.36744C25.0242 10.2488 25.727 10.9405 26.6865 10.9405C28.862 10.9405 28.9178 8.72036 28.9178 8.41355C28.9178 8.10675 28.8565 5.90332 26.6865 5.90332C25.7326 5.90332 25.0242 6.60619 24.7453 7.4764C24.656 7.73858 24.5835 8.10675 24.5835 8.41913C24.5835 8.72036 24.656 9.08852 24.7453 9.36744ZM31.8408 7.64933C31.8408 6.46115 32.3987 5.7806 32.8393 5.31203C33.4418 4.72631 34.3064 4.34141 35.2771 4.34141C35.4221 4.34141 35.952 4.35814 36.2031 4.44181C36.3816 4.46971 36.4262 4.57569 36.4262 4.80998V5.76945C36.4262 5.95911 36.2811 6.06509 36.1026 6.03162C34.5909 5.70808 33.6649 6.3719 33.6649 7.77763V12.2905C33.6649 12.4243 33.5478 12.4969 33.4139 12.4969H32.0919C31.9468 12.4969 31.8408 12.4243 31.8408 12.2905V7.64933ZM37.5139 5.93122C38.2614 4.88808 39.4663 4.34698 40.7159 4.34698C41.9822 4.34698 43.1815 4.88808 43.9624 5.93122C44.4756 6.63408 44.7267 7.54892 44.7267 8.41355C44.7267 9.31166 44.4756 10.193 43.9624 10.9238C43.1815 11.9502 41.9766 12.4801 40.7159 12.4801C39.4663 12.4801 38.2614 11.9502 37.5139 10.9238C36.984 10.1874 36.7218 9.30608 36.7218 8.41355C36.7163 7.54334 36.984 6.63408 37.5139 5.93122ZM38.7746 9.36744C39.0814 10.2488 39.7564 10.9405 40.7159 10.9405C41.6753 10.9405 42.3894 10.2488 42.685 9.36744C42.7743 9.08852 42.8468 8.73709 42.8468 8.41355C42.8468 8.10675 42.7743 7.73858 42.685 7.47082C42.3894 6.60619 41.6698 5.89775 40.7159 5.89775C39.762 5.89775 39.087 6.60061 38.7746 7.47082C38.6742 7.733 38.6296 8.10117 38.6296 8.41355C38.6296 8.73709 38.6742 9.08852 38.7746 9.36744Z" fill="#FF5A00"></path>
  <path d="M51.666 12.542C50.417 12.542 48.425 12.257 48.425 11.102 48.425 10.6 48.799 10.227 49.318 10.227 49.591 10.227 49.797 10.333 50.048 10.455 50.428 10.645 50.913 10.89 51.872 10.89 53.022 10.89 53.674 10.533 53.674 9.897 53.674 8.269 48.576 9.39 48.576 6.082 48.576 4.302 49.937 3.203 52.481 3.203 53.546 3.203 55.236 3.399 55.236 4.537 55.236 5.05 54.862 5.412 54.349 5.412 54.098 5.412 53.931 5.323 53.73 5.223 53.434 5.067 53.061 4.871 52.213 4.871 51.08 4.871 50.478 5.212 50.478 5.831 50.478 7.694 55.604 6.355 55.604 9.697 55.599 11.42 54.171 12.542 51.666 12.542ZM66.287 12.542C65.768 12.542 65.355 12.129 65.355 11.61V6.712L62.795 10.439C62.605 10.717 62.287 10.851 62.003 10.857 61.718 10.857 61.4 10.717 61.211 10.439L58.65 6.712V11.61C58.65 12.129 58.237 12.542 57.719 12.542 57.2 12.542 56.787 12.129 56.787 11.61V4.146C56.787 3.672 57.127 3.215 57.774 3.215 58.232 3.215 58.6 3.438 58.857 3.811L62.036 8.441 65.182 3.811C65.433 3.443 65.779 3.215 66.231 3.215 66.878 3.215 67.218 3.672 67.218 4.146V11.61C67.218 12.129 66.806 12.542 66.287 12.542ZM69.003 12.542C68.468 12.542 67.904 11.984 68.217 11.32L71.77 3.728C71.932 3.382 72.3 3.209 72.663 3.209 73.025 3.209 73.394 3.382 73.555 3.728L77.064 11.219C77.376 11.889 76.846 12.542 76.216 12.542 75.865 12.542 75.536 12.352 75.374 12.012L74.576 10.305H70.61L69.79 12.056C69.639 12.374 69.327 12.542 69.003 12.542ZM73.884 8.732 72.59 5.942 71.296 8.732H73.884ZM78.983 12.542C78.464 12.542 78.051 12.129 78.051 11.61V4.28C78.051 3.761 78.464 3.348 78.983 3.348L82.313 3.354C84.478 3.36 85.738 4.498 85.738 6.35 85.738 7.705 85.008 8.687 83.864 9.139L85.325 11.047C85.459 11.225 85.521 11.415 85.521 11.632 85.521 12.179 85.141 12.558 84.584 12.547 84.282 12.542 84.026 12.419 83.842 12.179L81.727 9.412H79.915V11.61C79.915 12.129 79.502 12.542 78.983 12.542ZM82.135 7.811C83.273 7.811 83.875 7.343 83.875 6.45 83.875 5.557 83.273 5.089 82.135 5.089H79.915V7.817L82.135 7.811ZM89.37 5.156H87.094C86.592 5.156 86.196 4.76 86.196 4.258 86.196 3.756 86.592 3.36 87.094 3.36H93.514C94.016 3.36 94.412 3.756 94.412 4.258 94.412 4.76 94.016 5.156 93.514 5.156H91.238V11.61C91.238 12.129 90.826 12.542 90.307 12.542 89.788 12.542 89.375 12.129 89.375 11.61L89.37 5.156Z" fill="#422779"></path>
  <path d="M102.08 8.50279L99.927 8.48606L98.9619 3.22574L103.118 3.25363L102.08 8.50279Z" fill="#fff"></path>
  <path d="M102.08 8.50279L99.927 8.48606L98.962 3.22574L103.118 3.25363L102.08 8.50279ZM100.976 12.6196C100.145 12.6196 99.4696 11.939 99.4752 11.1078C99.4752 10.2767 100.156 9.60171 100.987 9.60729C101.818 9.60729 102.493 10.2878 102.487 11.119C102.487 11.1246 102.487 11.1302 102.487 11.1302C102.482 11.9557 101.807 12.6196 100.976 12.6196ZM101.009 1C97.8854 1.02789 95.3696 3.57159 95.3751 6.68985C95.3751 10.801 101.009 16 101.009 16C101.333 15.7043 106.643 10.8178 106.643 6.68985C106.649 3.57159 104.133 1.02789 101.009 1Z" fill="#FF5A00"></path>
  <path d="M100.976 12.6195C100.145 12.6195 99.4696 11.939 99.4752 11.1078C99.4752 10.2767 100.156 9.60169 100.987 9.60727C101.818 9.60727 102.493 10.2878 102.487 11.119C102.487 11.1246 102.487 11.1246 102.487 11.1301C102.482 11.9557 101.807 12.6195 100.976 12.6195Z" fill="#fff"></path>
</svg>